# Blender v2.74 (sub 0) OBJ File: 'untitled.blend'
# www.blender.org
mtllib starry_night.mtl
o Cube
v 455.999756 -368.500000 -9.249994
v 455.999756 -368.500000 9.249995
v -455.999817 -368.500000 9.249993
v -455.999603 -368.500000 -9.249998
v 455.999969 368.500000 -9.249990
v 455.999451 368.500000 9.250001
v -455.999908 368.500000 9.249992
v -455.999725 368.500000 -9.249995
v 455.999756 -368.500000 9.249995
v -455.999817 -368.500000 9.249993
v 455.999451 368.500000 9.250001
v -455.999908 368.500000 9.249992
v 455.999756 -368.500000 9.249995
v -455.999817 -368.500000 9.249993
v 455.999451 368.500000 9.250001
v -455.999908 368.500000 9.249992
v 417.712830 -337.559814 9.249995
v -417.712891 -337.559814 9.249993
v 417.712585 337.559814 9.250001
v -417.713043 337.559814 9.249992
v 417.712830 -337.559814 1.041480
v -417.712891 -337.559814 1.041479
v 417.712585 337.559814 1.041486
v -417.713043 337.559814 1.041477
vt 0.999900 0.000100
vt 0.999900 0.999900
vt 0.000100 0.999900
vt 0.000100 0.000100
vt 0.000000 0.000000
vn -0.000000 -0.000000 1.000000
vn 0.000000 -1.000000 0.000000
vn 0.000000 1.000000 -0.000000
vn 1.000000 -0.000000 0.000000
vn -1.000000 -0.000000 -0.000000
vn 0.000000 0.000000 -1.000000
usemtl Material
s off
f 21/1/1 23/2/1 24/3/1 22/4/1
usemtl Material_NONE
f 6/5/1 7/5/1 12/5/1 11/5/1
f 11/5/1 12/5/1 16/5/1 15/5/1
f 7/5/1 3/5/1 10/5/1 12/5/1
f 2/5/1 6/5/1 11/5/1 9/5/1
f 3/5/1 2/5/1 9/5/1 10/5/1
f 12/5/1 10/5/1 14/5/1 16/5/1
f 9/5/1 11/5/1 15/5/1 13/5/1
f 10/5/1 9/5/1 13/5/1 14/5/1
usemtl Material.001
f 1/5/2 2/5/2 3/5/2 4/5/2
f 5/5/3 8/5/3 7/5/3 6/5/3
f 1/5/4 5/5/4 6/5/4 2/5/4
f 3/5/5 7/5/5 8/5/5 4/5/5
f 5/5/6 1/5/6 4/5/6 8/5/6
f 15/5/1 16/5/1 20/5/1 19/5/1
f 19/5/2 20/5/2 24/5/2 23/5/2
f 16/5/1 14/5/1 18/5/1 20/5/1
f 13/5/1 15/5/1 19/5/1 17/5/1
f 14/5/1 13/5/1 17/5/1 18/5/1
f 20/5/4 18/5/4 22/5/4 24/5/4
f 17/5/5 19/5/5 23/5/5 21/5/5
f 18/5/3 17/5/3 21/5/3 22/5/3
